<svg xmlns="http://www.w3.org/2000/svg" xmlns:xlink="http://www.w3.org/1999/xlink" contentStyleType="text/css" height="382px" preserveAspectRatio="none" style="width:1351px;height:382px;background:#FFFFFF;" version="1.1" viewBox="0 0 1351 382" width="1351px" zoomAndPan="magnify"><defs/><g><!--class Etudiant--><g id="elem_Etudiant"><rect codeLine="3" fill="#F1F1F1" height="178.375" id="Etudiant" rx="2.5" ry="2.5" style="stroke:#181818;stroke-width:0.5;" width="270.8633" x="560" y="7"/><ellipse cx="661.7188" cy="23" fill="#ADD1B2" rx="11" ry="11" style="stroke:#181818;stroke-width:1;"/><path d="M664.6875,28.6406 Q664.1094,28.9375 663.4688,29.0781 Q662.8281,29.2344 662.125,29.2344 Q659.625,29.2344 658.2969,27.5938 Q656.9844,25.9375 656.9844,22.8125 Q656.9844,19.6875 658.2969,18.0313 Q659.625,16.375 662.125,16.375 Q662.8281,16.375 663.4688,16.5313 Q664.125,16.6875 664.6875,16.9844 L664.6875,19.7031 Q664.0625,19.125 663.4688,18.8594 Q662.875,18.5781 662.25,18.5781 Q660.9063,18.5781 660.2188,19.6563 Q659.5313,20.7188 659.5313,22.8125 Q659.5313,24.9063 660.2188,25.9844 Q660.9063,27.0469 662.25,27.0469 Q662.875,27.0469 663.4688,26.7813 Q664.0625,26.5 664.6875,25.9219 L664.6875,28.6406 Z " fill="#000000"/><text fill="#000000" font-family="sans-serif" font-size="14" lengthAdjust="spacing" textLength="58.9258" x="682.2188" y="27.8467">Etudiant</text><line style="stroke:#181818;stroke-width:0.5;" x1="561" x2="829.8633" y1="39" y2="39"/><rect fill="none" height="6" style="stroke:#C82930;stroke-width:1;" width="6" x="568" y="49.6484"/><text fill="#000000" font-family="sans-serif" font-size="14" lengthAdjust="spacing" textLength="122.1787" x="580" y="55.9951">numEtudiant : int</text><rect fill="none" height="6" style="stroke:#C82930;stroke-width:1;" width="6" x="568" y="65.9453"/><text fill="#000000" font-family="sans-serif" font-size="14" lengthAdjust="spacing" textLength="84.8818" x="580" y="72.292">nom : string</text><rect fill="none" height="6" style="stroke:#C82930;stroke-width:1;" width="6" x="568" y="82.2422"/><text fill="#000000" font-family="sans-serif" font-size="14" lengthAdjust="spacing" textLength="108.1377" x="580" y="88.5889">prenom : string</text><rect fill="none" height="6" style="stroke:#C82930;stroke-width:1;" width="6" x="568" y="98.5391"/><text fill="#000000" font-family="sans-serif" font-size="14" lengthAdjust="spacing" textLength="108.8418" x="580" y="104.8857">adresse : string</text><rect fill="none" height="6" style="stroke:#C82930;stroke-width:1;" width="6" x="568" y="114.8359"/><text fill="#000000" font-family="sans-serif" font-size="14" lengthAdjust="spacing" textLength="124.2227" x="580" y="121.1826">telephone : string</text><line style="stroke:#181818;stroke-width:0.5;" x1="561" x2="829.8633" y1="128.4844" y2="128.4844"/><ellipse cx="571" cy="142.1328" fill="#84BE84" rx="3" ry="3" style="stroke:#038048;stroke-width:1;"/><text fill="#000000" font-family="sans-serif" font-size="14" lengthAdjust="spacing" textLength="244.8633" x="580" y="145.4795">ajouterExperienceProfessionnelle()</text><ellipse cx="571" cy="158.4297" fill="#84BE84" rx="3" ry="3" style="stroke:#038048;stroke-width:1;"/><text fill="#000000" font-family="sans-serif" font-size="14" lengthAdjust="spacing" textLength="170.707" x="580" y="161.7764">ajouterDiplomeObtenu()</text><ellipse cx="571" cy="174.7266" fill="#84BE84" rx="3" ry="3" style="stroke:#038048;stroke-width:1;"/><text fill="#000000" font-family="sans-serif" font-size="14" lengthAdjust="spacing" textLength="96.3936" x="580" y="178.0732">prendreRDV()</text></g><!--class EtudiantPremierCycle--><g id="elem_EtudiantPremierCycle"><rect codeLine="14" fill="#F1F1F1" height="96.8906" id="EtudiantPremierCycle" rx="2.5" ry="2.5" style="stroke:#181818;stroke-width:0.5;" width="200.6514" x="944" y="270"/><ellipse cx="966.5406" cy="286" fill="#ADD1B2" rx="11" ry="11" style="stroke:#181818;stroke-width:1;"/><path d="M969.5093,291.6406 Q968.9312,291.9375 968.2906,292.0781 Q967.65,292.2344 966.9468,292.2344 Q964.4468,292.2344 963.1187,290.5938 Q961.8062,288.9375 961.8062,285.8125 Q961.8062,282.6875 963.1187,281.0313 Q964.4468,279.375 966.9468,279.375 Q967.65,279.375 968.2906,279.5313 Q968.9468,279.6875 969.5093,279.9844 L969.5093,282.7031 Q968.8843,282.125 968.2906,281.8594 Q967.6968,281.5781 967.0718,281.5781 Q965.7281,281.5781 965.0406,282.6563 Q964.3531,283.7188 964.3531,285.8125 Q964.3531,287.9063 965.0406,288.9844 Q965.7281,290.0469 967.0718,290.0469 Q967.6968,290.0469 968.2906,289.7813 Q968.8843,289.5 969.5093,288.9219 L969.5093,291.6406 Z " fill="#000000"/><text fill="#000000" font-family="sans-serif" font-size="14" lengthAdjust="spacing" textLength="151.8945" x="982.2163" y="290.8467">EtudiantPremierCycle</text><line style="stroke:#181818;stroke-width:0.5;" x1="945" x2="1143.6514" y1="302" y2="302"/><rect fill="none" height="6" style="stroke:#C82930;stroke-width:1;" width="6" x="952" y="312.6484"/><text fill="#000000" font-family="sans-serif" font-size="14" lengthAdjust="spacing" textLength="113.8525" x="964" y="318.9951">serieBac : string</text><rect fill="none" height="6" style="stroke:#C82930;stroke-width:1;" width="6" x="952" y="328.9453"/><text fill="#000000" font-family="sans-serif" font-size="14" lengthAdjust="spacing" textLength="171.001" x="964" y="335.292">anneeObtentionBac : int</text><rect fill="none" height="6" style="stroke:#C82930;stroke-width:1;" width="6" x="952" y="345.2422"/><text fill="#000000" font-family="sans-serif" font-size="14" lengthAdjust="spacing" textLength="174.6514" x="964" y="351.5889">lieuObtentionBac : string</text><line style="stroke:#181818;stroke-width:0.5;" x1="945" x2="1143.6514" y1="358.8906" y2="358.8906"/></g><!--class EtudiantDeuxiemeCycle--><g id="elem_EtudiantDeuxiemeCycle"><rect codeLine="20" fill="#F1F1F1" height="64.2969" id="EtudiantDeuxiemeCycle" rx="2.5" ry="2.5" style="stroke:#181818;stroke-width:0.5;" width="214.1318" x="226.5" y="286.5"/><ellipse cx="247.6378" cy="302.5" fill="#ADD1B2" rx="11" ry="11" style="stroke:#181818;stroke-width:1;"/><path d="M250.6066,308.1406 Q250.0285,308.4375 249.3878,308.5781 Q248.7472,308.7344 248.0441,308.7344 Q245.5441,308.7344 244.216,307.0938 Q242.9035,305.4375 242.9035,302.3125 Q242.9035,299.1875 244.216,297.5313 Q245.5441,295.875 248.0441,295.875 Q248.7472,295.875 249.3878,296.0313 Q250.0441,296.1875 250.6066,296.4844 L250.6066,299.2031 Q249.9816,298.625 249.3878,298.3594 Q248.7941,298.0781 248.1691,298.0781 Q246.8253,298.0781 246.1378,299.1563 Q245.4503,300.2188 245.4503,302.3125 Q245.4503,304.4063 246.1378,305.4844 Q246.8253,306.5469 248.1691,306.5469 Q248.7941,306.5469 249.3878,306.2813 Q249.9816,306 250.6066,305.4219 L250.6066,308.1406 Z " fill="#000000"/><text fill="#000000" font-family="sans-serif" font-size="14" lengthAdjust="spacing" textLength="168.4922" x="263.0018" y="307.3467">EtudiantDeuxiemeCycle</text><line style="stroke:#181818;stroke-width:0.5;" x1="227.5" x2="439.6318" y1="318.5" y2="318.5"/><rect fill="none" height="6" style="stroke:#C82930;stroke-width:1;" width="6" x="234.5" y="329.1484"/><text fill="#000000" font-family="sans-serif" font-size="14" lengthAdjust="spacing" textLength="188.1318" x="246.5" y="335.4951">disciplinePrincipale : string</text><line style="stroke:#181818;stroke-width:0.5;" x1="227.5" x2="439.6318" y1="342.7969" y2="342.7969"/></g><!--class Diplome--><g id="elem_Diplome"><rect codeLine="24" fill="#F1F1F1" height="80.5938" id="Diplome" rx="2.5" ry="2.5" style="stroke:#181818;stroke-width:0.5;" width="113.5684" x="321.5" y="55.5"/><ellipse cx="346.9875" cy="71.5" fill="#ADD1B2" rx="11" ry="11" style="stroke:#181818;stroke-width:1;"/><path d="M349.9563,77.1406 Q349.3782,77.4375 348.7375,77.5781 Q348.0969,77.7344 347.3938,77.7344 Q344.8938,77.7344 343.5657,76.0938 Q342.2532,74.4375 342.2532,71.3125 Q342.2532,68.1875 343.5657,66.5313 Q344.8938,64.875 347.3938,64.875 Q348.0969,64.875 348.7375,65.0313 Q349.3938,65.1875 349.9563,65.4844 L349.9563,68.2031 Q349.3313,67.625 348.7375,67.3594 Q348.1438,67.0781 347.5188,67.0781 Q346.175,67.0781 345.4875,68.1563 Q344.8,69.2188 344.8,71.3125 Q344.8,73.4063 345.4875,74.4844 Q346.175,75.5469 347.5188,75.5469 Q348.1438,75.5469 348.7375,75.2813 Q349.3313,75 349.9563,74.4219 L349.9563,77.1406 Z " fill="#000000"/><text fill="#000000" font-family="sans-serif" font-size="14" lengthAdjust="spacing" textLength="58.2627" x="363.3181" y="76.3467">Diplome</text><line style="stroke:#181818;stroke-width:0.5;" x1="322.5" x2="434.0684" y1="87.5" y2="87.5"/><rect fill="none" height="6" style="stroke:#C82930;stroke-width:1;" width="6" x="329.5" y="98.1484"/><text fill="#000000" font-family="sans-serif" font-size="14" lengthAdjust="spacing" textLength="87.5684" x="341.5" y="104.4951">code : string</text><rect fill="none" height="6" style="stroke:#C82930;stroke-width:1;" width="6" x="329.5" y="114.4453"/><text fill="#000000" font-family="sans-serif" font-size="14" lengthAdjust="spacing" textLength="84.8818" x="341.5" y="120.792">nom : string</text><line style="stroke:#181818;stroke-width:0.5;" x1="322.5" x2="434.0684" y1="128.0938" y2="128.0938"/></g><!--class DiplomeObtenu--><g id="elem_DiplomeObtenu"><rect codeLine="29" fill="#F1F1F1" height="80.5938" id="DiplomeObtenu" rx="2.5" ry="2.5" style="stroke:#181818;stroke-width:0.5;" width="181.0732" x="476" y="278"/><ellipse cx="508.575" cy="294" fill="#ADD1B2" rx="11" ry="11" style="stroke:#181818;stroke-width:1;"/><path d="M511.5438,299.6406 Q510.9657,299.9375 510.325,300.0781 Q509.6844,300.2344 508.9813,300.2344 Q506.4813,300.2344 505.1532,298.5938 Q503.8407,296.9375 503.8407,293.8125 Q503.8407,290.6875 505.1532,289.0313 Q506.4813,287.375 508.9813,287.375 Q509.6844,287.375 510.325,287.5313 Q510.9813,287.6875 511.5438,287.9844 L511.5438,290.7031 Q510.9188,290.125 510.325,289.8594 Q509.7313,289.5781 509.1063,289.5781 Q507.7625,289.5781 507.075,290.6563 Q506.3875,291.7188 506.3875,293.8125 Q506.3875,295.9063 507.075,296.9844 Q507.7625,298.0469 509.1063,298.0469 Q509.7313,298.0469 510.325,297.7813 Q510.9188,297.5 511.5438,296.9219 L511.5438,299.6406 Z " fill="#000000"/><text fill="#000000" font-family="sans-serif" font-size="14" lengthAdjust="spacing" textLength="110.0176" x="526.4806" y="298.8467">DiplomeObtenu</text><line style="stroke:#181818;stroke-width:0.5;" x1="477" x2="656.0732" y1="310" y2="310"/><rect fill="none" height="6" style="stroke:#C82930;stroke-width:1;" width="6" x="484" y="320.6484"/><text fill="#000000" font-family="sans-serif" font-size="14" lengthAdjust="spacing" textLength="155.0732" x="496" y="326.9951">dateObtention : string</text><rect fill="none" height="6" style="stroke:#C82930;stroke-width:1;" width="6" x="484" y="336.9453"/><text fill="#000000" font-family="sans-serif" font-size="14" lengthAdjust="spacing" textLength="148.7705" x="496" y="343.292">lieuObtention : string</text><line style="stroke:#181818;stroke-width:0.5;" x1="477" x2="656.0732" y1="350.5938" y2="350.5938"/></g><!--class DiplomeActuel--><g id="elem_DiplomeActuel"><rect codeLine="34" fill="#F1F1F1" height="80.5938" id="DiplomeActuel" rx="2.5" ry="2.5" style="stroke:#181818;stroke-width:0.5;" width="184.7168" x="7" y="278"/><ellipse cx="44.6415" cy="294" fill="#ADD1B2" rx="11" ry="11" style="stroke:#181818;stroke-width:1;"/><path d="M47.6103,299.6406 Q47.0321,299.9375 46.3915,300.0781 Q45.7509,300.2344 45.0478,300.2344 Q42.5478,300.2344 41.2196,298.5938 Q39.9071,296.9375 39.9071,293.8125 Q39.9071,290.6875 41.2196,289.0313 Q42.5478,287.375 45.0478,287.375 Q45.7509,287.375 46.3915,287.5313 Q47.0478,287.6875 47.6103,287.9844 L47.6103,290.7031 Q46.9853,290.125 46.3915,289.8594 Q45.7978,289.5781 45.1728,289.5781 Q43.829,289.5781 43.1415,290.6563 Q42.454,291.7188 42.454,293.8125 Q42.454,295.9063 43.1415,296.9844 Q43.829,298.0469 45.1728,298.0469 Q45.7978,298.0469 46.3915,297.7813 Q46.9853,297.5 47.6103,296.9219 L47.6103,299.6406 Z " fill="#000000"/><text fill="#000000" font-family="sans-serif" font-size="14" lengthAdjust="spacing" textLength="102.4023" x="63.6729" y="298.8467">DiplomeActuel</text><line style="stroke:#181818;stroke-width:0.5;" x1="8" x2="190.7168" y1="310" y2="310"/><rect fill="none" height="6" style="stroke:#C82930;stroke-width:1;" width="6" x="15" y="320.6484"/><text fill="#000000" font-family="sans-serif" font-size="14" lengthAdjust="spacing" textLength="158.7168" x="27" y="326.9951">dateInscription : string</text><rect fill="none" height="6" style="stroke:#C82930;stroke-width:1;" width="6" x="15" y="336.9453"/><text fill="#000000" font-family="sans-serif" font-size="14" lengthAdjust="spacing" textLength="75.4209" x="27" y="343.292">annee : int</text><line style="stroke:#181818;stroke-width:0.5;" x1="8" x2="190.7168" y1="350.5938" y2="350.5938"/></g><!--class ExperienceProfessionnelle--><g id="elem_ExperienceProfessionnelle"><rect codeLine="39" fill="#F1F1F1" height="113.1875" id="ExperienceProfessionnelle" rx="2.5" ry="2.5" style="stroke:#181818;stroke-width:0.5;" width="216.1738" x="692.5" y="262"/><ellipse cx="707.5" cy="278" fill="#ADD1B2" rx="11" ry="11" style="stroke:#181818;stroke-width:1;"/><path d="M710.4688,283.6406 Q709.8906,283.9375 709.25,284.0781 Q708.6094,284.2344 707.9063,284.2344 Q705.4063,284.2344 704.0781,282.5938 Q702.7656,280.9375 702.7656,277.8125 Q702.7656,274.6875 704.0781,273.0313 Q705.4063,271.375 707.9063,271.375 Q708.6094,271.375 709.25,271.5313 Q709.9063,271.6875 710.4688,271.9844 L710.4688,274.7031 Q709.8438,274.125 709.25,273.8594 Q708.6563,273.5781 708.0313,273.5781 Q706.6875,273.5781 706,274.6563 Q705.3125,275.7188 705.3125,277.8125 Q705.3125,279.9063 706,280.9844 Q706.6875,282.0469 708.0313,282.0469 Q708.6563,282.0469 709.25,281.7813 Q709.8438,281.5 710.4688,280.9219 L710.4688,283.6406 Z " fill="#000000"/><text fill="#000000" font-family="sans-serif" font-size="14" lengthAdjust="spacing" textLength="184.1738" x="721.5" y="282.8467">ExperienceProfessionnelle</text><line style="stroke:#181818;stroke-width:0.5;" x1="693.5" x2="907.6738" y1="294" y2="294"/><rect fill="none" height="6" style="stroke:#C82930;stroke-width:1;" width="6" x="700.5" y="304.6484"/><text fill="#000000" font-family="sans-serif" font-size="14" lengthAdjust="spacing" textLength="128.0166" x="712.5" y="310.9951">dateDebut : string</text><rect fill="none" height="6" style="stroke:#C82930;stroke-width:1;" width="6" x="700.5" y="320.9453"/><text fill="#000000" font-family="sans-serif" font-size="14" lengthAdjust="spacing" textLength="106.1895" x="712.5" y="327.292">dateFin : string</text><rect fill="none" height="6" style="stroke:#C82930;stroke-width:1;" width="6" x="700.5" y="337.2422"/><text fill="#000000" font-family="sans-serif" font-size="14" lengthAdjust="spacing" textLength="156.8984" x="712.5" y="343.5889">nomEntreprise : string</text><rect fill="none" height="6" style="stroke:#C82930;stroke-width:1;" width="6" x="700.5" y="353.5391"/><text fill="#000000" font-family="sans-serif" font-size="14" lengthAdjust="spacing" textLength="110.6875" x="712.5" y="359.8857">fonction : string</text><line style="stroke:#181818;stroke-width:0.5;" x1="693.5" x2="907.6738" y1="367.1875" y2="367.1875"/></g><!--class Entreprise--><g id="elem_Entreprise"><rect codeLine="46" fill="#F1F1F1" height="129.4844" id="Entreprise" rx="2.5" ry="2.5" style="stroke:#181818;stroke-width:0.5;" width="165.3506" x="1179" y="31.5"/><ellipse cx="1221.6003" cy="47.5" fill="#ADD1B2" rx="11" ry="11" style="stroke:#181818;stroke-width:1;"/><path d="M1224.569,53.1406 Q1223.9909,53.4375 1223.3503,53.5781 Q1222.7097,53.7344 1222.0065,53.7344 Q1219.5065,53.7344 1218.1784,52.0938 Q1216.8659,50.4375 1216.8659,47.3125 Q1216.8659,44.1875 1218.1784,42.5313 Q1219.5065,40.875 1222.0065,40.875 Q1222.7097,40.875 1223.3503,41.0313 Q1224.0065,41.1875 1224.569,41.4844 L1224.569,44.2031 Q1223.944,43.625 1223.3503,43.3594 Q1222.7565,43.0781 1222.1315,43.0781 Q1220.7878,43.0781 1220.1003,44.1563 Q1219.4128,45.2188 1219.4128,47.3125 Q1219.4128,49.4063 1220.1003,50.4844 Q1220.7878,51.5469 1222.1315,51.5469 Q1222.7565,51.5469 1223.3503,51.2813 Q1223.944,51 1224.569,50.4219 L1224.569,53.1406 Z " fill="#000000"/><text fill="#000000" font-family="sans-serif" font-size="14" lengthAdjust="spacing" textLength="72.0166" x="1241.7337" y="52.3467">Entreprise</text><line style="stroke:#181818;stroke-width:0.5;" x1="1180" x2="1343.3506" y1="63.5" y2="63.5"/><rect fill="none" height="6" style="stroke:#C82930;stroke-width:1;" width="6" x="1187" y="74.1484"/><text fill="#000000" font-family="sans-serif" font-size="14" lengthAdjust="spacing" textLength="84.8818" x="1199" y="80.4951">nom : string</text><rect fill="none" height="6" style="stroke:#C82930;stroke-width:1;" width="6" x="1187" y="90.4453"/><text fill="#000000" font-family="sans-serif" font-size="14" lengthAdjust="spacing" textLength="108.8418" x="1199" y="96.792">adresse : string</text><rect fill="none" height="6" style="stroke:#C82930;stroke-width:1;" width="6" x="1187" y="106.7422"/><text fill="#000000" font-family="sans-serif" font-size="14" lengthAdjust="spacing" textLength="139.3506" x="1199" y="113.0889">nomContact : string</text><rect fill="none" height="6" style="stroke:#C82930;stroke-width:1;" width="6" x="1187" y="123.0391"/><text fill="#000000" font-family="sans-serif" font-size="14" lengthAdjust="spacing" textLength="126.2666" x="1199" y="129.3857">telContact : string</text><line style="stroke:#181818;stroke-width:0.5;" x1="1180" x2="1343.3506" y1="136.6875" y2="136.6875"/><ellipse cx="1190" cy="150.3359" fill="#84BE84" rx="3" ry="3" style="stroke:#038048;stroke-width:1;"/><text fill="#000000" font-family="sans-serif" font-size="14" lengthAdjust="spacing" textLength="107.2217" x="1199" y="153.6826">organiserRDV()</text></g><!--class RDV--><g id="elem_RDV"><rect codeLine="54" fill="#F1F1F1" height="96.8906" id="RDV" rx="2.5" ry="2.5" style="stroke:#181818;stroke-width:0.5;" width="163.1768" x="1180" y="270"/><ellipse cx="1242.2959" cy="286" fill="#ADD1B2" rx="11" ry="11" style="stroke:#181818;stroke-width:1;"/><path d="M1245.2646,291.6406 Q1244.6865,291.9375 1244.0459,292.0781 Q1243.4053,292.2344 1242.7021,292.2344 Q1240.2021,292.2344 1238.874,290.5938 Q1237.5615,288.9375 1237.5615,285.8125 Q1237.5615,282.6875 1238.874,281.0313 Q1240.2021,279.375 1242.7021,279.375 Q1243.4053,279.375 1244.0459,279.5313 Q1244.7021,279.6875 1245.2646,279.9844 L1245.2646,282.7031 Q1244.6396,282.125 1244.0459,281.8594 Q1243.4521,281.5781 1242.8271,281.5781 Q1241.4834,281.5781 1240.7959,282.6563 Q1240.1084,283.7188 1240.1084,285.8125 Q1240.1084,287.9063 1240.7959,288.9844 Q1241.4834,290.0469 1242.8271,290.0469 Q1243.4521,290.0469 1244.0459,289.7813 Q1244.6396,289.5 1245.2646,288.9219 L1245.2646,291.6406 Z " fill="#000000"/><text fill="#000000" font-family="sans-serif" font-size="14" lengthAdjust="spacing" textLength="30.085" x="1262.7959" y="290.8467">RDV</text><line style="stroke:#181818;stroke-width:0.5;" x1="1181" x2="1342.1768" y1="302" y2="302"/><rect fill="none" height="6" style="stroke:#C82930;stroke-width:1;" width="6" x="1188" y="312.6484"/><text fill="#000000" font-family="sans-serif" font-size="14" lengthAdjust="spacing" textLength="85.374" x="1200" y="318.9951">date : string</text><rect fill="none" height="6" style="stroke:#C82930;stroke-width:1;" width="6" x="1188" y="328.9453"/><text fill="#000000" font-family="sans-serif" font-size="14" lengthAdjust="spacing" textLength="137.1768" x="1200" y="335.292">heureDebut : string</text><rect fill="none" height="6" style="stroke:#C82930;stroke-width:1;" width="6" x="1188" y="345.2422"/><text fill="#000000" font-family="sans-serif" font-size="14" lengthAdjust="spacing" textLength="115.3496" x="1200" y="351.5889">heureFin : string</text><line style="stroke:#181818;stroke-width:0.5;" x1="1181" x2="1342.1768" y1="358.8906" y2="358.8906"/></g><!--link Etudiant to ExperienceProfessionnelle--><g id="link_Etudiant_ExperienceProfessionnelle"><path codeLine="62" d="M737.45,185.1 C749.79,211.01 762.94,238.62 774.02,261.89 " fill="none" id="Etudiant-ExperienceProfessionnelle" style="stroke:#181818;stroke-width:1;"/><polygon fill="#000000" points="764.6498,228.0806,763.4141,218.6507,758.1074,221.178,764.6498,228.0806" style="stroke:#000000;stroke-width:1;"/><text fill="#000000" font-family="sans-serif" font-size="13" lengthAdjust="spacing" textLength="7.9663" x="771.5" y="228.0669">a</text><text fill="#000000" font-family="sans-serif" font-size="13" lengthAdjust="spacing" textLength="8.271" x="732.7288" y="205.4581">1</text><text fill="#000000" font-family="sans-serif" font-size="13" lengthAdjust="spacing" textLength="6.5" x="764.2638" y="250.7393">*</text></g><!--link Etudiant to DiplomeObtenu--><g id="link_Etudiant_DiplomeObtenu"><path codeLine="63" d="M643.96,185.1 C625.15,217.25 604.81,252.02 589.69,277.85 " fill="none" id="Etudiant-DiplomeObtenu" style="stroke:#181818;stroke-width:1;"/><polygon fill="#000000" points="625.9749,227.8819,633.0795,221.5593,628.0063,218.5908,625.9749,227.8819" style="stroke:#000000;stroke-width:1;"/><text fill="#000000" font-family="sans-serif" font-size="13" lengthAdjust="spacing" textLength="46.249" x="637.5" y="228.0669">obtient</text><text fill="#000000" font-family="sans-serif" font-size="13" lengthAdjust="spacing" textLength="8.271" x="631.2046" y="205.4581">1</text><text fill="#000000" font-family="sans-serif" font-size="13" lengthAdjust="spacing" textLength="6.5" x="587.0693" y="266.9867">*</text></g><!--link Etudiant to DiplomeActuel--><g id="link_Etudiant_DiplomeActuel"><path codeLine="64" d="M559.94,147.22 C525.03,159.85 487.45,173.16 452.5,185 C344.79,221.48 313.75,218.94 208.5,262 C196.9,266.74 184.86,272.25 173.2,277.91 " fill="none" id="Etudiant-DiplomeActuel" style="stroke:#181818;stroke-width:1;"/><polygon fill="#000000" points="350.7632,225.1671,360.2731,225.0557,358.3913,219.4872,350.7632,225.1671" style="stroke:#000000;stroke-width:1;"/><text fill="#000000" font-family="sans-serif" font-size="13" lengthAdjust="spacing" textLength="39.8252" x="364.5" y="228.0669">inscrit</text><text fill="#000000" font-family="sans-serif" font-size="13" lengthAdjust="spacing" textLength="8.271" x="543.8835" y="146.8075">1</text><text fill="#000000" font-family="sans-serif" font-size="13" lengthAdjust="spacing" textLength="8.271" x="176.79" y="267.0566">1</text></g><!--link Etudiant to RDV--><g id="link_Etudiant_RDV"><path codeLine="65" d="M831,138.07 C925.53,168.36 1053.72,212.73 1162.5,262 C1168.24,264.6 1174.1,267.42 1179.95,270.36 " fill="none" id="Etudiant-RDV" style="stroke:#181818;stroke-width:1;"/><polygon fill="#000000" points="1098.1753,225.3389,1090.7594,219.3844,1088.6758,224.8805,1098.1753,225.3389" style="stroke:#000000;stroke-width:1;"/><text fill="#000000" font-family="sans-serif" font-size="13" lengthAdjust="spacing" textLength="38.0859" x="1102.5" y="228.0669">prend</text><text fill="#000000" font-family="sans-serif" font-size="13" lengthAdjust="spacing" textLength="8.271" x="839.0766" y="137.1285">1</text><text fill="#000000" font-family="sans-serif" font-size="13" lengthAdjust="spacing" textLength="6.5" x="1165.2474" y="261.7015">*</text></g><!--link Entreprise to RDV--><g id="link_Entreprise_RDV"><path codeLine="66" d="M1261.5,160.78 C1261.5,195.63 1261.5,238.06 1261.5,269.98 " fill="none" id="Entreprise-RDV" style="stroke:#181818;stroke-width:1;"/><polygon fill="#000000" points="1266.5,228.5664,1269.4389,219.5213,1263.5611,219.5213,1266.5,228.5664" style="stroke:#000000;stroke-width:1;"/><text fill="#000000" font-family="sans-serif" font-size="13" lengthAdjust="spacing" textLength="29.5928" x="1275.5" y="228.0669">g&#232;re</text><text fill="#000000" font-family="sans-serif" font-size="13" lengthAdjust="spacing" textLength="8.271" x="1253.0329" y="181.1839">1</text><text fill="#000000" font-family="sans-serif" font-size="13" lengthAdjust="spacing" textLength="6.5" x="1255.0831" y="258.8367">*</text></g><!--reverse link Etudiant to EtudiantPremierCycle--><g id="link_Etudiant_EtudiantPremierCycle"><path codeLine="68" d="M846.6466,192.4954 C893.3466,222.0054 928.71,244.34 968.87,269.71 " fill="none" id="Etudiant-backto-EtudiantPremierCycle" style="stroke:#181818;stroke-width:1;"/><polygon fill="none" points="831.43,182.88,843.4414,197.5676,849.8517,187.4232,831.43,182.88" style="stroke:#181818;stroke-width:1;"/></g><!--reverse link Etudiant to EtudiantDeuxiemeCycle--><g id="link_Etudiant_EtudiantDeuxiemeCycle"><path codeLine="69" d="M544.3446,186.0467 C523.1046,198.7267 516.9,202.54 496.5,215 C457.84,238.61 414.44,265.94 382.15,286.44 " fill="none" id="Etudiant-backto-EtudiantDeuxiemeCycle" style="stroke:#181818;stroke-width:1;"/><polygon fill="none" points="559.8,176.82,541.2691,180.8949,547.4202,191.1985,559.8,176.82" style="stroke:#181818;stroke-width:1;"/></g><!--reverse link Diplome to DiplomeObtenu--><g id="link_Diplome_DiplomeObtenu"><path codeLine="71" d="M424.0092,150.3766 C458.0492,190.2966 498.57,237.83 532.63,277.77 " fill="none" id="Diplome-backto-DiplomeObtenu" style="stroke:#181818;stroke-width:1;"/><polygon fill="none" points="412.33,136.68,419.4436,154.2697,428.5747,146.4835,412.33,136.68" style="stroke:#181818;stroke-width:1;"/></g><!--reverse link Diplome to DiplomeActuel--><g id="link_Diplome_DiplomeActuel"><path codeLine="72" d="M314.177,147.8398 C263.657,187.7598 200.31,237.83 149.77,277.77 " fill="none" id="Diplome-backto-DiplomeActuel" style="stroke:#181818;stroke-width:1;"/><polygon fill="none" points="328.3,136.68,310.4571,143.1321,317.8969,152.5474,328.3,136.68" style="stroke:#181818;stroke-width:1;"/></g><!--SRC=[VLDDJ-Gm3BttLrYzi0kQ0zSHGbhehBGd40VkcTGp1ALEbGy9nEx_MNu7VmndEhIJDAMdr7v-pdknpw3vUDyfKbuPWXOTI2sSGrTLXmDiV6YL80zl5V2t0WhT65k38lyLDnt_EsyLxO-Xtc8XAbgBt24FUzJOFndA4XSWdatmQ3SlFLg59F7UcXqpy8K9jSOVFrDWetfjEhpRUgGm9kDTkF53yyYXVxcwUukTGdlxAZMEIbtiToFaJ03t7UYZQGDWya4h35doM3thsc1uKTXXshPLJh84HInK4H-5nWB9KUPO9aqxypHnFwyS39hQ2Z-9oeaIKSkKlwGFg1FAF-IaLNs9zE3ZqRl9cwLdJbWRt0QVyyN4RqK54pRaBVPMpQTkPqWkQ3efUbkUyOLfPkIj8I-aBynvCNC1nku5SJkR3Id_9k9pnYSCjkp88PDOmgHdy81QHD4EC6e4VRhsutBNbpMiLb2VrzyyoXe4N1ThqYbRWzbwPl0bz6MT3L2SYJWsVe4xEh8ULZeYfeUQOVOV_rdWzOcigxyCAEtz0YHPqghwMhi39j5OJ0s2FW40]--></g></svg>